<?xml version="1.0" standalone="no"?>
<!DOCTYPE svg PUBLIC "-//W3C//DTD SVG 20010904//EN"
 "http://www.w3.org/TR/2001/REC-SVG-20010904/DTD/svg10.dtd">
<svg version="1.0" xmlns="http://www.w3.org/2000/svg"
 width="240.000000pt" height="240.000000pt" viewBox="0 0 240.000000 240.000000"
 preserveAspectRatio="xMidYMid meet">
<metadata>
Created by potrace 1.14, written by Peter Selinger 2001-2017
</metadata>
<g transform="translate(0.000000,240.000000) scale(0.100000,-0.100000)"
fill="#000000" stroke="none">
<path d="M528 1996 c-21 -7 -40 -11 -44 -7 -4 3 -4 1 -1 -5 9 -15 -19 -38 -33
-29 -7 4 -10 1 -9 -6 4 -19 -29 -79 -42 -79 -6 0 -23 -9 -39 -20 -15 -11 -31
-16 -35 -12 -5 4 -5 2 -2 -4 4 -7 0 -17 -8 -24 -11 -9 -12 -16 -2 -30 6 -11
14 -15 17 -9 9 13 81 -11 91 -31 40 -79 62 -186 60 -287 -1 -24 3 -43 8 -43 9
0 27 -38 24 -51 -1 -3 16 -27 38 -53 21 -27 39 -54 39 -61 0 -7 7 -16 16 -19
8 -3 12 -10 9 -16 -3 -5 1 -10 9 -10 9 0 16 -4 16 -9 0 -15 81 -101 93 -98 7
1 11 -3 10 -10 -2 -7 3 -10 11 -7 7 3 16 -2 19 -10 4 -9 15 -16 26 -16 11 0
32 -11 48 -24 15 -13 43 -27 61 -31 18 -3 30 -11 27 -16 -4 -5 0 -6 8 -3 8 3
18 1 22 -5 3 -6 14 -11 24 -11 10 0 24 -7 31 -15 10 -12 10 -15 -4 -15 -9 0
-16 -4 -16 -10 0 -5 7 -7 15 -4 8 4 15 2 15 -4 0 -5 -6 -12 -14 -15 -8 -3 -13
-14 -12 -24 2 -10 1 -12 -1 -5 -6 17 -7 16 -45 -21 -18 -17 -32 -39 -30 -49 2
-9 -11 -27 -31 -42 -32 -25 -37 -25 -151 -21 -65 2 -124 9 -131 15 -10 8 -15
8 -21 -1 -5 -8 -3 -9 6 -4 8 5 11 3 8 -6 -3 -10 -31 -15 -109 -17 -57 -2 -105
-5 -106 -6 -7 -7 -10 -247 -3 -251 15 -9 974 -14 991 -5 14 8 16 22 13 86 -3
42 -7 80 -9 85 -3 4 -2 10 3 13 4 2 6 21 4 40 l-4 36 -97 0 c-102 0 -118 4
-99 27 8 10 8 17 -1 26 -10 9 -11 8 -5 -8 7 -18 6 -18 -9 -6 -12 9 -14 17 -7
26 7 8 5 12 -5 12 -8 0 -12 -4 -9 -9 3 -4 -7 -13 -21 -18 -33 -12 -38 -13 -30
-1 3 5 0 13 -7 17 -7 4 -10 4 -6 -1 4 -4 3 -14 -3 -22 -13 -15 -33 -18 -24 -3
10 16 -7 11 -19 -5 -6 -9 -25 -18 -41 -21 -29 -5 -29 -4 -10 10 11 9 26 16 33
16 7 0 18 11 24 25 6 14 15 25 21 25 5 0 6 7 3 16 -3 8 -2 13 2 10 9 -5 62 36
65 51 1 4 6 7 10 5 5 -1 6 2 3 7 -4 5 1 16 9 24 8 9 15 20 15 25 0 5 32 13 70
16 39 4 70 12 70 17 0 5 12 6 27 3 15 -4 33 -7 40 -7 7 0 13 -4 13 -7 0 -4 26
-11 58 -15 123 -15 221 -35 228 -46 3 -5 14 -9 24 -9 10 0 32 -11 48 -25 17
-14 34 -25 39 -24 15 4 63 -20 63 -32 0 -8 -4 -8 -15 1 -9 7 -18 10 -22 6 -3
-3 0 -6 8 -6 11 0 11 -2 -1 -10 -12 -8 -11 -10 7 -10 12 0 25 5 28 10 3 6 11
10 16 10 6 0 7 -5 3 -12 -4 -6 -3 -8 4 -5 14 9 43 -3 36 -14 -3 -5 2 -9 10 -9
26 0 66 -22 59 -33 -3 -6 -1 -7 5 -3 6 4 24 -2 39 -12 16 -10 47 -31 71 -46
23 -14 42 -31 42 -36 0 -6 7 -10 15 -10 8 0 15 -6 15 -14 0 -8 5 -18 12 -22 7
-4 8 -3 4 5 -6 8 0 10 18 5 39 -10 34 22 -11 64 -21 19 -30 29 -20 22 12 -9
17 -9 17 -1 0 6 -6 12 -12 12 -7 1 -17 2 -23 4 -5 1 -14 3 -20 4 -5 1 -3 6 5
11 12 8 10 10 -8 10 -13 0 -21 4 -17 9 3 5 -5 11 -17 13 -13 2 -22 9 -20 16 1
8 -2 11 -7 7 -15 -9 -121 65 -121 84 0 14 -2 14 -10 1 -6 -10 -10 -11 -10 -2
0 6 -3 11 -7 10 -16 -4 -53 23 -47 34 4 6 3 8 -3 5 -13 -8 -79 25 -118 59 -19
17 -26 28 -17 31 23 9 12 32 -28 56 -22 13 -37 27 -33 31 5 4 1 6 -8 4 -16 -3
-89 41 -89 55 0 5 -5 5 -11 2 -6 -4 -13 2 -16 14 -3 11 -14 23 -24 26 -10 4
-19 10 -19 15 0 5 -11 22 -25 38 -13 16 -22 32 -20 36 3 3 2 4 -1 2 -10 -8
-74 56 -67 67 3 6 1 7 -5 4 -15 -10 -42 3 -42 19 0 8 -10 14 -22 14 -12 0 -18
3 -15 7 4 3 -9 17 -29 30 -29 20 -33 27 -23 39 6 8 9 17 5 21 -3 3 -6 1 -6 -5
0 -7 -4 -12 -9 -12 -12 0 -61 47 -61 60 0 5 -4 10 -10 10 -21 0 -25 2 -42 17
-10 9 -15 20 -12 25 3 4 2 7 -3 6 -15 -5 -86 59 -78 71 2 5 -3 8 -13 7 -11 0
-16 6 -16 17 2 14 -1 15 -13 6 -8 -7 -13 -8 -12 -3 1 5 1 15 0 23 -1 11 -4 11
-18 0 -11 -10 -14 -10 -9 -1 4 6 2 12 -3 12 -6 0 -11 7 -11 15 0 8 -5 15 -11
15 -5 0 -7 -4 -4 -10 3 -5 1 -10 -6 -10 -6 0 -9 8 -6 20 3 11 1 17 -4 14 -5
-3 -13 5 -18 18 -6 13 -10 19 -10 14 -1 -6 -31 20 -67 57 -36 37 -63 71 -59
76 5 10 -11 24 -30 27 -6 1 -28 13 -49 28 -44 30 -106 34 -168 12z m497 -1166
c3 -5 -1 -10 -10 -10 -9 0 -13 5 -10 10 3 6 8 10 10 10 2 0 7 -4 10 -10z m-50
-50 c3 -5 2 -10 -4 -10 -5 0 -13 5 -16 10 -3 6 -2 10 4 10 5 0 13 -4 16 -10z
m-438 -156 c-3 -3 -12 -4 -19 -1 -8 3 -5 6 6 6 11 1 17 -2 13 -5z m246 -1
c-13 -2 -33 -2 -45 0 -13 2 -3 4 22 4 25 0 35 -2 23 -4z m535 0 c-27 -2 -69
-2 -95 0 -27 2 -5 3 47 3 52 0 74 -1 48 -3z"/>
<path d="M1070 1636 c0 -2 7 -7 16 -10 8 -3 12 -2 9 4 -6 10 -25 14 -25 6z"/>
<path d="M491 1364 c0 -11 3 -14 6 -6 3 7 2 16 -1 19 -3 4 -6 -2 -5 -13z"/>
<path d="M1450 1320 c0 -6 7 -10 15 -10 8 0 15 2 15 4 0 2 -7 6 -15 10 -8 3
-15 1 -15 -4z"/>
<path d="M645 1140 c-3 -5 -1 -10 4 -10 6 0 11 5 11 10 0 6 -2 10 -4 10 -3 0
-8 -4 -11 -10z"/>
<path d="M874 979 c-2 -5 -12 -6 -22 -3 -14 5 -14 4 -2 -4 9 -7 19 -7 26 -2 6
6 13 7 16 4 3 -3 8 -1 12 4 3 5 -2 9 -10 9 -8 0 -17 -4 -20 -8z"/>
<path d="M1523 923 c9 -2 23 -2 30 0 6 3 -1 5 -18 5 -16 0 -22 -2 -12 -5z"/>
<path d="M1093 815 c0 -7 6 -11 14 -8 7 3 13 6 13 8 0 2 -6 5 -13 8 -8 3 -14
-1 -14 -8z"/>
<path d="M627 784 c-10 -11 5 -34 22 -34 13 1 13 2 -3 11 -15 9 -16 13 -5 20
8 5 9 9 3 9 -6 0 -13 -3 -17 -6z"/>
<path d="M2115 661 c-3 -5 -2 -12 3 -15 5 -3 9 1 9 9 0 17 -3 19 -12 6z"/>
</g>
</svg>
